<svg xmlns="http://www.w3.org/2000/svg" xmlns:xlink="http://www.w3.org/1999/xlink" width="92px" height="151px" viewBox="0 0 92 151" version="1.1">    <title>eth-icon</title>    <defs>        <linearGradient x1="50%" y1="6.83577292%" x2="50%" y2="100%" id="linearGradient-1">            <stop stop-color="#333336" offset="0%"/>            <stop stop-color="#1A1A1B" offset="100%"/>        </linearGradient>        <linearGradient x1="50%" y1="6.83577292%" x2="50%" y2="100%" id="linearGradient-2">            <stop stop-color="#333336" offset="0%"/>            <stop stop-color="#1A1A1B" offset="100%"/>        </linearGradient>        <linearGradient x1="50%" y1="6.83577292%" x2="50%" y2="100%" id="linearGradient-3">            <stop stop-color="#1A1A1B" offset="0%"/>            <stop stop-color="#333336" offset="100%"/>        </linearGradient>        <linearGradient x1="50%" y1="6.83577292%" x2="50%" y2="100%" id="linearGradient-4">            <stop stop-color="#333336" offset="0%"/>            <stop stop-color="#1A1A1B" offset="100%"/>        </linearGradient>        <linearGradient x1="50%" y1="6.83577292%" x2="50%" y2="100%" id="linearGradient-5">            <stop stop-color="#333336" offset="0%"/>            <stop stop-color="#1A1A1B" offset="100%"/>        </linearGradient>        <linearGradient x1="50%" y1="6.83577292%" x2="50%" y2="100%" id="linearGradient-6">            <stop stop-color="#1A1A1B" offset="0%"/>            <stop stop-color="#333336" offset="100%"/>        </linearGradient>    </defs>    <g id="补充需求" stroke="none" stroke-width="1" fill="none" fill-rule="evenodd">        <g id="钱包-手机" transform="translate(-176.000000, -250.000000)" fill-rule="nonzero">            <g id="弹窗" transform="translate(18.000000, 158.000000)">                <g id="编组-6" transform="translate(20.000000, 92.000000)">                    <g id="eth-icon" transform="translate(138.000000, 0.000000)">                        <polygon id="路径" fill="url(#linearGradient-1)" opacity="0.900000036" points="46 113.440385 46 150.940385 92 86.1326923"/>                        <polygon id="路径" fill="url(#linearGradient-2)" points="46 55.5761538 46 103.845 92 76.5376923"/>                        <polygon id="路径" fill="url(#linearGradient-3)" points="46 1.31860335e-12 46 55.5769231 92 76.5380769"/>                        <polygon id="路径" fill="url(#linearGradient-4)" opacity="0.600000024" points="45.9996167 113.440385 45.9996167 150.940385 9.68292113e-12 86.1326923"/>                        <polygon id="路径" fill="url(#linearGradient-5)" opacity="0.699999988" points="45.9996167 55.5761538 45.9996167 103.845 9.68292113e-12 76.5376923"/>                        <polygon id="路径" fill="url(#linearGradient-6)" opacity="0.400000006" points="45.9996167 1.31860335e-12 45.9996167 55.5769231 9.68292113e-12 76.5380769"/>                    </g>                </g>            </g>        </g>    </g></svg>