<svg xmlns="http://www.w3.org/2000/svg" xmlns:xlink="http://www.w3.org/1999/xlink" width="24px" height="24px" viewBox="0 0 24 24" version="1.1">    <defs>        <circle id="path-1" cx="12" cy="12" r="12"/>    </defs>    <g id="补充需求" stroke="none" stroke-width="1" fill="none" fill-rule="evenodd">        <g id="连接钱包-手机" transform="translate(-77.000000, -389.000000)">            <g id="弹窗" transform="translate(18.000000, 132.000000)">                <g id="编组-2备份" transform="translate(20.000000, 246.000000)">                    <g id="编组" transform="translate(39.000000, 11.000000)">                        <mask id="mask-2" fill="white">                            <use xlink:href="#path-1"/>                        </mask>                        <use id="蒙版" fill="#FFFFFF" xlink:href="#path-1"/>                        <g id="heco" mask="url(#mask-2)" fill-rule="nonzero">                            <g transform="translate(6.000000, 3.000000)" id="路径">                                <path d="M8,5.5394573 C8,2.9553776 6.69291824,0.732436966 5.69924793,0.00865379012 C5.69451983,0.00713641481 5.62366129,-0.0323151355 5.62995609,0.0708656239 C5.62995609,0.0723832069 5.62838239,0.0723832069 5.62838239,0.0739007899 C5.54649394,5.06452028 2.90089834,6.4164915 1.44581867,8.23885807 C-1.91157276,12.4435046 1.21117623,17.0532322 4.39062044,17.9044495 C6.17009952,18.3809096 3.9796045,17.0608478 3.69772303,14.2718736 C3.35599892,10.9018285 8,8.32989921 8,5.5394573 Z" fill="#2D3338"/>                                <path d="M9.52866244,7.01281083 C9.50640749,6.9988161 9.47564553,6.98955696 9.45339058,7.02206997 C9.39353768,7.66342435 8.67013794,9.03589727 7.75350752,10.2952815 C4.64446849,14.5677025 6.41618263,16.6280375 7.41322708,17.7340452 C7.99124809,18.3769545 7.41322708,17.7340452 8.8582796,17.0772824 C8.9711494,17.0261098 11.6800247,15.6505269 11.9724532,12.5166973 C12.2580457,9.48203226 10.2452262,7.56892459 9.52866244,7.01281083 Z" fill="#01943F"/>                            </g>                        </g>                    </g>                </g>            </g>        </g>    </g></svg>